<?xml version="1.0" encoding="UTF-8" standalone="no"?>
<svg width="15px" height="14px" viewBox="0 0 15 14" version="1.1" xmlns="http://www.w3.org/2000/svg" xmlns:xlink="http://www.w3.org/1999/xlink">
    <!-- Generator: Sketch 41.2 (35397) - http://www.bohemiancoding.com/sketch -->
    <title> copy 2</title>
    <desc>Created with Sketch.</desc>
    <defs></defs>
    <g id="SMP-flows" stroke="none" stroke-width="1" fill="none" fill-rule="evenodd">
        <g id="Bob_4b" transform="translate(-839.000000, -164.000000)" fill="#F89B1C">
            <g id="Group-2-Copy" transform="translate(600.000000, 140.000000)">
                <path d="M247.570217,35.4964764 L247.570217,33.9078724 C247.570217,33.8298353 247.543741,33.7643409 247.490787,33.7113871 C247.437834,33.6584334 247.375126,33.6319569 247.302663,33.6319569 L245.697337,33.6319569 C245.624874,33.6319569 245.562166,33.6584334 245.509213,33.7113871 C245.456259,33.7643409 245.429783,33.8298353 245.429783,33.9078724 L245.429783,35.4964764 C245.429783,35.5745134 245.456259,35.6400079 245.509213,35.6929616 C245.562166,35.7459153 245.624874,35.7723918 245.697337,35.7723918 L247.302663,35.7723918 C247.375126,35.7723918 247.437834,35.7459153 247.490787,35.6929616 C247.543741,35.6400079 247.570217,35.5745134 247.570217,35.4964764 L247.570217,35.4964764 Z M247.553495,32.3694348 L247.703995,28.531702 C247.703995,28.464813 247.676125,28.4118601 247.620384,28.3728416 C247.547921,28.3115267 247.481033,28.2808697 247.419718,28.2808697 L245.580282,28.2808697 C245.518967,28.2808697 245.452079,28.3115267 245.379616,28.3728416 C245.323875,28.4118601 245.296005,28.470387 245.296005,28.5484241 L245.438144,32.3694348 C245.438144,32.4251756 245.466014,32.471161 245.521754,32.5073925 C245.577495,32.543624 245.644383,32.5617395 245.72242,32.5617395 L247.269219,32.5617395 C247.347256,32.5617395 247.41275,32.543624 247.465704,32.5073925 C247.518658,32.471161 247.547921,32.4251756 247.553495,32.3694348 L247.553495,32.3694348 Z M247.43644,24.5601919 L253.857745,36.3325837 C254.052838,36.6837506 254.047264,37.0349122 253.841023,37.386079 C253.746263,37.5477273 253.616668,37.6759291 253.452233,37.7706884 C253.287798,37.8654477 253.110823,37.9128267 252.921305,37.9128267 L240.078695,37.9128267 C239.889177,37.9128267 239.712202,37.8654477 239.547767,37.7706884 C239.383332,37.6759291 239.253737,37.5477273 239.158977,37.386079 C238.952736,37.0349122 238.947162,36.6837506 239.142255,36.3325837 L245.56356,24.5601919 C245.658319,24.3873956 245.789308,24.2508327 245.95653,24.1504993 C246.123753,24.0501659 246.304907,24 246.5,24 C246.695093,24 246.876247,24.0501659 247.04347,24.1504993 C247.210692,24.2508327 247.341681,24.3873956 247.43644,24.5601919 L247.43644,24.5601919 Z" id="-copy-2"></path>
            </g>
        </g>
    </g>
</svg>