<svg width="15" height="14" viewBox="0 0 15 14" fill="none" xmlns="http://www.w3.org/2000/svg">
    <path fill-rule="evenodd" clip-rule="evenodd" d="M8.57022 11.4965V9.90787C8.57022 9.82983 8.54373 9.76434 8.49078 9.71139C8.43783 9.65843 8.37512 9.63196 8.30266 9.63196H6.69734C6.62488 9.63196 6.56217 9.65843 6.50921 9.71139C6.45626 9.76434 6.42978 9.82983 6.42978 9.90787V11.4965C6.42978 11.5745 6.45626 11.64 6.50921 11.693C6.56217 11.7459 6.62488 11.7724 6.69734 11.7724H8.30266C8.37512 11.7724 8.43783 11.7459 8.49078 11.693C8.54373 11.64 8.57022 11.5745 8.57022 11.4965ZM8.55349 8.36943L8.70399 4.5317C8.70399 4.46481 8.67611 4.41186 8.62037 4.37284C8.54791 4.31153 8.48104 4.28087 8.41972 4.28087H6.58027C6.51896 4.28087 6.45208 4.31153 6.37962 4.37284C6.32388 4.41186 6.296 4.47039 6.296 4.54842L6.43814 8.36943C6.43814 8.42518 6.46602 8.47116 6.52176 8.50739C6.5775 8.54362 6.64439 8.56174 6.72242 8.56174H8.26922C8.34726 8.56174 8.41274 8.54362 8.4657 8.50739C8.51865 8.47116 8.54792 8.42518 8.55349 8.36943ZM8.43644 0.560192L14.8577 12.3326C15.0528 12.6838 15.0473 13.0349 14.841 13.3861C14.7463 13.5477 14.6167 13.6759 14.4522 13.7707C14.2878 13.8654 14.1108 13.9128 13.9213 13.9128H1.07869C0.889168 13.9128 0.712192 13.8654 0.547757 13.7707C0.383322 13.6759 0.253738 13.5477 0.158978 13.3861C-0.0472628 13.0349 -0.0528384 12.6838 0.142255 12.3326L6.56355 0.560192C6.65831 0.387396 6.7893 0.250833 6.95652 0.150499C7.12375 0.0501659 7.3049 0 7.5 0C7.69509 0 7.87625 0.0501659 8.04347 0.150499C8.21069 0.250833 8.34169 0.387396 8.43644 0.560192Z" fill="#F89B1C"/>
</svg>
