<?xml version="1.0" encoding="utf-8"?>
<!-- Generator: Adobe Illustrator 22.0.1, SVG Export Plug-In . SVG Version: 6.00 Build 0)  -->
<svg version="1.1" id="Layer_1" xmlns="http://www.w3.org/2000/svg" xmlns:xlink="http://www.w3.org/1999/xlink" x="0px" y="0px"
	 viewBox="0 0 52 53" style="enable-background:new 0 0 52 53;" xml:space="preserve">
<style type="text/css">
	.st0{fill:none;stroke:#CC3636;stroke-linecap:round;stroke-linejoin:round;stroke-miterlimit:10;}
	.st1{fill:#FCAEAE;stroke:#CC3636;stroke-linecap:round;stroke-linejoin:round;stroke-miterlimit:10;}
</style>
<g>
	<circle class="st0" cx="28.6" cy="27.5" r="21.1"/>
	<path class="st0" d="M12.5,23.7c0-3.7,1.7-7,4.4-9.3"/>
	<path class="st0" d="M18.3,13.5c0.3-0.2,0.6-0.4,0.9-0.5"/>
	<polygon class="st1" points="37.8,22.9 33.9,18.9 28.6,24.3 23.2,18.9 19.3,22.9 24.6,28.2 19.3,33.6 23.2,37.5 28.6,32.2 
		33.9,37.5 37.8,33.6 32.5,28.2 	"/>
	<path class="st0" d="M21.1,12.1c1.1-0.3,2.2-0.5,3.4-0.5"/>
	<path class="st0" d="M35.2,42.6c-1.1,0.3-2.2,0.5-3.4,0.5"/>
	<path class="st0" d="M43.9,31c0,3.7-1.7,7-4.4,9.3"/>
	<path class="st0" d="M38.1,41.3c-0.3,0.2-0.6,0.4-0.9,0.5"/>
</g>
</svg>
