<?xml version="1.0" encoding="utf-8"?>
<!-- Generator: Adobe Illustrator 22.0.1, SVG Export Plug-In . SVG Version: 6.00 Build 0)  -->
<svg version="1.1" id="Layer_1" xmlns="http://www.w3.org/2000/svg" xmlns:xlink="http://www.w3.org/1999/xlink" x="0px" y="0px"
	 viewBox="0 0 52 53" style="enable-background:new 0 0 52 53;" xml:space="preserve">
<style type="text/css">
	.st0{fill:none;stroke:#CC3636;stroke-linecap:round;stroke-linejoin:round;stroke-miterlimit:10;}
	.st1{fill:#FCAEAE;stroke:#CC3636;stroke-linecap:round;stroke-linejoin:round;stroke-miterlimit:10;}
</style>
<g>
	<circle class="st0" cx="26" cy="27.1" r="21.1"/>
	<path class="st0" d="M9.9,23.3c0-3.7,1.7-7,4.4-9.3"/>
	<path class="st0" d="M15.7,13.1c0.3-0.2,0.6-0.4,0.9-0.5"/>
	<polygon class="st1" points="35.2,22.5 31.3,18.5 26,23.9 20.6,18.5 16.7,22.5 22,27.8 16.7,33.2 20.6,37.1 26,31.8 31.3,37.1 
		35.2,33.2 29.9,27.8 	"/>
	<path class="st0" d="M18.5,11.7c1.1-0.3,2.2-0.5,3.4-0.5"/>
	<path class="st0" d="M32.6,42.2c-1.1,0.3-2.2,0.5-3.4,0.5"/>
	<path class="st0" d="M41.3,30.6c0,3.7-1.7,7-4.4,9.3"/>
	<path class="st0" d="M35.5,40.9c-0.3,0.2-0.6,0.4-0.9,0.5"/>
</g>
</svg>
