<?xml version="1.0" encoding="utf-8"?>
<!-- Generator: Adobe Illustrator 22.0.1, SVG Export Plug-In . SVG Version: 6.00 Build 0)  -->
<svg version="1.1" id="Layer_1" xmlns="http://www.w3.org/2000/svg" xmlns:xlink="http://www.w3.org/1999/xlink" x="0px" y="0px"
	 viewBox="0 0 60 63" style="enable-background:new 0 0 60 63;" xml:space="preserve">
<style type="text/css">
	.st0{fill:#F0E9FF;stroke:#8980A0;stroke-width:1.25;stroke-linecap:round;stroke-miterlimit:10;}
	.st1{fill:#F0E9FF;stroke:#8980A0;stroke-linecap:round;stroke-linejoin:round;stroke-miterlimit:10;}
	.st2{fill:#F0E9FF;stroke:#8980A0;stroke-width:1.25;stroke-linecap:round;stroke-linejoin:round;stroke-miterlimit:10;}
</style>
<path class="st0" d="M24.2,18.8c1.7-3.2,4-5.1,6.5-5.2h5.2"/>
<path class="st0" d="M24.5,25.3H20c-0.7,0-1.3,0.5-1.3,1.2l-0.1,1.3C18.5,28.5,18,29,17.3,29H17c-0.9,0-1.7,0.7-1.8,1.6l-0.1,1.1"/>
<path class="st0" d="M47.3,47.8L49,30.5c0.1-0.9-0.7-1.7-1.8-1.7H35c-0.8,0-1.4-0.6-1.3-1.4l0.1-0.7c0.1-0.7-0.5-1.4-1.3-1.4H29"/>
<polyline class="st1" points="19.7,33.4 20,32 46.3,32 45.4,37.2 "/>
<path class="st0" d="M9.2,33.3h7.1c0.8,0,1.5,0.5,1.7,1.3l0.4,1.6c0.2,0.6,0.7,1,1.3,1h21.2c0.8,0,1.5,0.5,1.7,1.3l4.1,15.2H13.9
	c-0.6,0-1.1-0.4-1.3-1L7.9,35"/>
<path class="st0" d="M29.3,18.7c1.7-3.2,4-5.1,6.6-5.1c4.4,0,8.1,5.8,9.3,13.7"/>
<path class="st0" d="M33.5,15.6c2.7,1.1,6.4,5.7,6.6,11.8"/>
<polyline class="st2" points="29.3,18.8 32.8,18.8 26.8,25.9 20.9,18.8 24,18.8 "/>
</svg>
