<?xml version="1.0" encoding="utf-8"?>
<!-- Generator: Adobe Illustrator 21.0.2, SVG Export Plug-In . SVG Version: 6.00 Build 0)  -->
<svg version="1.1" id="Layer_1" xmlns="http://www.w3.org/2000/svg" xmlns:xlink="http://www.w3.org/1999/xlink" x="0px" y="0px"
	 viewBox="0 0 60 63" style="enable-background:new 0 0 60 63;" xml:space="preserve">
<style type="text/css">
	.st0{fill:#F0E9FF;stroke:#B3A4CC;stroke-miterlimit:10;}
	.st1{fill:#EEEEEE;stroke:#B3A4CC;stroke-miterlimit:10;}
	.st2{fill:none;stroke:#B3A4CC;stroke-linecap:round;stroke-linejoin:round;stroke-miterlimit:10;}
</style>
<path class="st0" d="M24.2,18.8c1.7-3.2,4-5.1,6.5-5.2h5.2"/>
<g>
	<path class="st1" d="M24.5,25.3H20c-0.7,0-1.3,0.5-1.3,1.2l-0.1,1.3C18.5,28.5,18,29,17.3,29H17c-0.9,0-1.7,0.7-1.8,1.6l-0.1,1.1"
		/>
	<path class="st1" d="M47.3,49.8L49,31c0.1-1-0.7-1.9-1.8-1.9H35c-0.8,0-1.4-0.7-1.3-1.5l0.1-0.8c0.1-0.8-0.5-1.5-1.3-1.5H29"/>
	<line class="st1" x1="20.2" y1="27.2" x2="32.1" y2="27.2"/>
	<line class="st1" x1="20" y1="29.1" x2="32" y2="29.1"/>
</g>
<polyline class="st0" points="19.7,34.8 20,32 46.3,32 45.4,42.3 "/>
<path class="st0" d="M9.2,33.3h7.1c0.8,0,1.5,0.5,1.7,1.3l0.4,1.6c0.2,0.6,0.7,1,1.3,1h21.2c0.8,0,1.5,0.5,1.7,1.3l4.1,15.2H13.9
	c-0.6,0-1.1-0.4-1.3-1L7.9,35"/>
<line class="st2" x1="30.3" y1="46.4" x2="25.5" y2="46.4"/>
<line class="st2" x1="24.9" y1="44.1" x2="29.7" y2="44.1"/>
<polygon class="st2" points="35.8,48.8 33.9,41.8 19.5,41.8 21.3,48.8 "/>
<path class="st0" d="M29.3,18.7c1.7-3.2,4-5.1,6.6-5.1c4.4,0,8.1,5.8,9.3,13.7"/>
<path class="st0" d="M33.5,15.6c2.7,1.1,6.4,5.7,6.6,11.8"/>
<polyline class="st0" points="29.3,18.8 32.8,18.8 26.8,25.9 20.9,18.8 24,18.8 "/>
</svg>
