<?xml version="1.0" encoding="utf-8"?>
<!-- Generator: Adobe Illustrator 22.0.0, SVG Export Plug-In . SVG Version: 6.00 Build 0)  -->
<svg version="1.1" id="Layer_1" xmlns="http://www.w3.org/2000/svg" xmlns:xlink="http://www.w3.org/1999/xlink" x="0px" y="0px"
	 viewBox="0 0 60 63" style="enable-background:new 0 0 60 63;" xml:space="preserve">
<style type="text/css">
	.st0{fill:#F0E9FF;stroke:#9A8EB2;stroke-linecap:round;stroke-miterlimit:10;}
	.st1{fill:#F0E9FF;stroke:#9A8EB2;stroke-linecap:round;stroke-linejoin:round;stroke-miterlimit:10;}
</style>
<path class="st0" d="M29.4,27.3h-9.5c-0.7,0-1.3,0.5-1.3,1.2l-0.1,1.3c-0.1,0.7-0.6,1.2-1.3,1.2h-0.2c-0.9,0-1.7,0.7-1.8,1.6l-0.1,1
	"/>
<path class="st0" d="M46.8,49.9l1.6-18.6c0.1-1-0.7-1.9-1.8-1.9h-7.6"/>
<path class="st1" d="M19.6,37.5h20.9c0.8,0,1.5,0.5,1.7,1.3l4,14.9H13.9c-0.6,0-1.1-0.4-1.3-1L7.9,35.3c-0.2-0.8,0.4-1.7,1.3-1.7h7
	c0.8,0,1.5,0.5,1.7,1.3l0.4,1.6C18.5,37.1,19,37.5,19.6,37.5z"/>
<polyline class="st0" points="38.9,32.3 45.8,32.3 44.9,42.5 "/>
<polyline class="st0" points="19.6,35.1 19.9,32.3 28.4,32.3 "/>
<polyline class="st1" points="36.3,36.2 37.4,23.2 41.1,23.2 35.1,15.2 27.6,23.2 31.3,23.2 30.2,36.2 "/>
</svg>
