<?xml version="1.0" encoding="utf-8"?>
<!-- Generator: Adobe Illustrator 22.0.1, SVG Export Plug-In . SVG Version: 6.00 Build 0)  -->
<svg version="1.1" id="Layer_1" xmlns="http://www.w3.org/2000/svg" xmlns:xlink="http://www.w3.org/1999/xlink" x="0px" y="0px"
	 viewBox="0 0 61.5 63.7" style="enable-background:new 0 0 61.5 63.7;" xml:space="preserve">
<style type="text/css">
	.st0{fill:#FFFBF8;}
	.st1{fill:#FFE5D4;}
	.st2{fill:#F0E9FF;stroke:#8980A0;stroke-width:1.25;stroke-linecap:round;stroke-miterlimit:10;}
	.st3{fill:#F0E9FF;stroke:#8980A0;stroke-linecap:round;stroke-linejoin:round;stroke-miterlimit:10;}
	.st4{fill:none;stroke:#8980A0;stroke-width:1.25;stroke-linecap:round;stroke-linejoin:round;stroke-miterlimit:10;}
	.st5{fill:none;stroke:#8980A0;stroke-width:0.75;stroke-linecap:round;stroke-linejoin:round;stroke-miterlimit:10;}
	.st6{fill:#F0E9FF;stroke:#8980A0;stroke-width:1.25;stroke-linecap:round;stroke-linejoin:round;stroke-miterlimit:10;}
</style>
<g>
	<circle id="XMLID_8_" class="st0" cx="32" cy="31.9" r="27"/>
	<polyline id="Rectangle-4-Copy-2_1_" class="st1" points="48,13.9 42.7,13.9 42.7,19.3 48,19.3 	"/>
	<path class="st2" d="M26,20h-4.5c-0.7,0-1.3,0.5-1.3,1.2l-0.1,1.3c-0.1,0.7-0.6,1.2-1.3,1.2h-0.3c-0.9,0-1.7,0.7-1.8,1.6l-0.1,1.1"
		/>
	<path class="st2" d="M48.3,42.5l2.2-17.3c0.1-0.9-0.9-1.7-2.3-1.7H32.4c-1,0-1.8-0.6-1.7-1.4l0.1-0.7c0.1-0.7-0.6-1.4-1.7-1.4h-4.5
		"/>
	<polyline class="st3" points="21.2,28.4 21.5,26.7 47.8,26.7 46.9,33 	"/>
	<path class="st2" d="M10.6,28h7.1c0.8,0,1.5,0.5,1.7,1.3l0.4,1.6c0.2,0.6,0.7,1,1.3,1h21.2c0.8,0,1.5,0.5,1.7,1.3l4.1,15.2H15.3
		c-0.6,0-1.1-0.4-1.3-1L9.4,29.7"/>
	<line id="XMLID_7_" class="st4" x1="4.1" y1="48" x2="11.2" y2="48"/>
	<line id="XMLID_6_" class="st4" x1="52.5" y1="48" x2="58.7" y2="48"/>
	<line id="XMLID_5_" class="st4" x1="14.1" y1="48" x2="51" y2="48"/>
	<line id="XMLID_4_" class="st5" x1="12.2" y1="51.2" x2="18.2" y2="51.2"/>
	<line id="XMLID_3_" class="st5" x1="21.8" y1="51.2" x2="27.7" y2="51.2"/>
	<line id="XMLID_2_" class="st5" x1="31.1" y1="51.2" x2="43.2" y2="51.2"/>
	<line id="XMLID_1_" class="st5" x1="46.9" y1="51.2" x2="53.8" y2="51.2"/>
	<rect id="Rectangle-4-Copy-9_1_" x="52.5" y="35" class="st1" width="2.4" height="3.7"/>
	<polyline id="Rectangle-4-Copy-16_1_" class="st1" points="14.3,23.3 14.3,20.8 12.1,20.8 12.1,23.3 	"/>
	<rect id="Rectangle-4-Copy-19_1_" x="18.5" y="15.4" class="st1" width="2.4" height="2.4"/>
	<path class="st6" d="M42.5,21.1c-0.8-2.5-2.3-4.7-4.4-6.3c-4.9-3.5-11.6-2.4-15.9,2.4c3.8-1.8,8.2-1.8,11.7,0.7
		c1.6,1.1,2.8,2.6,3.7,4.4l-3.9,0.9l7,5.7l4.8-8.7L42.5,21.1z"/>
</g>
</svg>
