<?xml version="1.0" encoding="utf-8"?>
<!-- Generator: Adobe Illustrator 22.0.1, SVG Export Plug-In . SVG Version: 6.00 Build 0)  -->
<svg version="1.1" id="Layer_1" xmlns="http://www.w3.org/2000/svg" xmlns:xlink="http://www.w3.org/1999/xlink" x="0px" y="0px"
	 viewBox="0 0 60 63.7" style="enable-background:new 0 0 60 63.7;" xml:space="preserve">
<style type="text/css">
	.st0{fill:#FFFBF8;}
	.st1{fill:#F0E9FF;stroke:#8980A0;stroke-width:1.25;stroke-linecap:round;stroke-miterlimit:10;}
	.st2{fill:#F0E9FF;stroke:#8980A0;stroke-linecap:round;stroke-miterlimit:10;}
	.st3{fill:#F0E9FF;stroke:#8980A0;stroke-width:1.25;stroke-linecap:round;stroke-linejoin:round;stroke-miterlimit:10;}
	.st4{fill:none;stroke:#8980A0;stroke-width:1.25;stroke-linecap:round;stroke-linejoin:round;stroke-miterlimit:10;}
	.st5{fill:none;stroke:#8980A0;stroke-width:0.75;stroke-linecap:round;stroke-linejoin:round;stroke-miterlimit:10;}
	.st6{fill:#FFE5D4;}
</style>
<circle id="XMLID_1176_" class="st0" cx="30" cy="32.3" r="27"/>
<path class="st1" d="M29.4,22h-9.5c-0.7,0-1.3,0.5-1.3,1.2l-0.1,1.3c-0.1,0.7-0.6,1.2-1.3,1.2H17c-0.9,0-1.7,0.7-1.8,1.6l-0.1,1"/>
<path class="st1" d="M46.5,44.6L48.4,26c0.1-1-0.8-1.9-2.2-1.9H37"/>
<polyline class="st2" points="37,27 45.8,27 44.7,37.2 "/>
<polyline class="st2" points="19.6,29.8 19.9,27 28.4,27 "/>
<polyline class="st3" points="34.3,30 35.4,19.4 39.1,19.4 33.1,12.9 25.6,19.4 29.3,19.4 28.2,30 "/>
<line id="XMLID_1189_" class="st4" x1="2.1" y1="48.4" x2="9.3" y2="48.4"/>
<line id="XMLID_1188_" class="st4" x1="50.5" y1="48.4" x2="56.7" y2="48.4"/>
<line id="XMLID_1187_" class="st4" x1="12.1" y1="48.4" x2="49" y2="48.4"/>
<line id="XMLID_1183_" class="st5" x1="10.3" y1="51.5" x2="16.2" y2="51.5"/>
<line id="XMLID_1182_" class="st5" x1="19.8" y1="51.5" x2="25.7" y2="51.5"/>
<line id="XMLID_1181_" class="st5" x1="29.1" y1="51.5" x2="41.3" y2="51.5"/>
<line id="XMLID_1180_" class="st5" x1="44.9" y1="51.5" x2="51.8" y2="51.5"/>
<path class="st3" d="M19.6,32.2h20.9c0.8,0,1.5,0.5,1.7,1.3l4,14.9H13.9c-0.6,0-1.1-0.4-1.3-1L7.9,30c-0.2-0.8,0.4-1.7,1.3-1.7h7
	c0.8,0,1.5,0.5,1.7,1.3l0.4,1.6C18.5,31.8,19,32.2,19.6,32.2z"/>
<polyline id="Rectangle-4-Copy-2" class="st6" points="46.1,14.3 40.7,14.3 40.7,19.7 46.1,19.7 "/>
<rect id="Rectangle-4-Copy-9" x="50.6" y="35.3" class="st6" width="2.4" height="3.7"/>
<polyline id="Rectangle-4-Copy-16" class="st6" points="12.4,23.7 12.4,21.3 10.1,21.3 10.1,23.7 "/>
<rect id="Rectangle-4-Copy-19" x="16.5" y="15.8" class="st6" width="2.4" height="2.4"/>
</svg>
