<?xml version="1.0" encoding="utf-8"?>
<!-- Generator: Adobe Illustrator 22.0.1, SVG Export Plug-In . SVG Version: 6.00 Build 0)  -->
<svg version="1.1" id="Layer_1" xmlns="http://www.w3.org/2000/svg" xmlns:xlink="http://www.w3.org/1999/xlink" x="0px" y="0px"
	 viewBox="0 0 60 60.8" style="enable-background:new 0 0 60 60.8;" xml:space="preserve">
<style type="text/css">
	.st0{fill:#FFFBF8;}
	.st1{fill:#FFE5D4;}
	.st2{fill:#F0E9FF;stroke:#8980A0;stroke-width:1.25;stroke-linecap:round;stroke-miterlimit:10;}
	.st3{fill:#F0E9FF;stroke:#8980A0;stroke-linecap:round;stroke-linejoin:round;stroke-miterlimit:10;}
	.st4{fill:#F0E9FF;stroke:#8980A0;stroke-width:1.25;stroke-linecap:round;stroke-linejoin:round;stroke-miterlimit:10;}
	.st5{fill:none;stroke:#8980A0;stroke-width:1.25;stroke-linecap:round;stroke-linejoin:round;stroke-miterlimit:10;}
	.st6{fill:none;stroke:#8980A0;stroke-width:0.75;stroke-linecap:round;stroke-linejoin:round;stroke-miterlimit:10;}
</style>
<g>
	<circle id="XMLID_1176_" class="st0" cx="30.5" cy="30.4" r="27"/>
	<polyline id="Rectangle-4-Copy-2" class="st1" points="46.6,12.5 41.2,12.5 41.2,17.9 46.6,17.9 	"/>
	<path class="st2" d="M24.2,12c1.7-3.2,4-5.1,6.5-5.2h5.2"/>
	<path class="st2" d="M24.5,18.5H20c-0.7,0-1.3,0.5-1.3,1.2L18.6,21c-0.1,0.7-0.6,1.2-1.3,1.2H17c-0.9,0-1.7,0.7-1.8,1.6l-0.1,1.1"
		/>
	<path class="st2" d="M47.3,41L49,23.7c0.1-0.9-0.7-1.7-1.8-1.7H35c-0.8,0-1.4-0.6-1.3-1.4l0.1-0.7c0.1-0.7-0.5-1.4-1.3-1.4H29"/>
	<polyline class="st3" points="19.7,26.6 20,25.2 46.3,25.2 45.4,30.4 	"/>
	<path class="st2" d="M9.2,26.5h7.1c0.8,0,1.5,0.5,1.7,1.3l0.4,1.6c0.2,0.6,0.7,1,1.3,1h21.2c0.8,0,1.5,0.5,1.7,1.3l4.1,15.2H13.9
		c-0.6,0-1.1-0.4-1.3-1L7.9,28.2"/>
	<path class="st2" d="M29.3,11.9c1.7-3.2,4-5.1,6.6-5.1c4.4,0,8.1,5.8,9.3,13.7"/>
	<path class="st2" d="M33.5,8.8c2.7,1.1,6.4,5.7,6.6,11.8"/>
	<polyline class="st4" points="29.3,12 32.8,12 26.8,19.1 20.9,12 24,12 	"/>
	<line id="XMLID_1189_" class="st5" x1="2.6" y1="46.6" x2="9.8" y2="46.6"/>
	<line id="XMLID_1188_" class="st5" x1="51" y1="46.6" x2="57.2" y2="46.6"/>
	<line id="XMLID_1187_" class="st5" x1="12.6" y1="46.6" x2="49.5" y2="46.6"/>
	<line id="XMLID_1183_" class="st6" x1="10.8" y1="49.7" x2="16.7" y2="49.7"/>
	<line id="XMLID_1182_" class="st6" x1="20.3" y1="49.7" x2="26.2" y2="49.7"/>
	<line id="XMLID_1181_" class="st6" x1="29.6" y1="49.7" x2="41.8" y2="49.7"/>
	<line id="XMLID_1180_" class="st6" x1="45.4" y1="49.7" x2="52.3" y2="49.7"/>
	<rect id="Rectangle-4-Copy-9" x="51.1" y="33.5" class="st1" width="2.4" height="3.7"/>
	<polyline id="Rectangle-4-Copy-16" class="st1" points="12.9,21.9 12.9,19.4 10.6,19.4 10.6,21.9 	"/>
	<rect id="Rectangle-4-Copy-19" x="17" y="14" class="st1" width="2.4" height="2.4"/>
</g>
</svg>
