<?xml version="1.0" encoding="utf-8"?>
<!-- Generator: Adobe Illustrator 22.0.1, SVG Export Plug-In . SVG Version: 6.00 Build 0)  -->
<svg version="1.1" id="Layer_1" xmlns="http://www.w3.org/2000/svg" xmlns:xlink="http://www.w3.org/1999/xlink" x="0px" y="0px"
	 viewBox="0 0 61.5 63.7" style="enable-background:new 0 0 61.5 63.7;" xml:space="preserve">
<style type="text/css">
	.st0{fill:#FFFBF8;}
	.st1{fill:#FFE5D4;}
	.st2{fill:#F0E9FF;stroke:#8980A0;stroke-width:1.25;stroke-linecap:round;stroke-miterlimit:10;}
	.st3{fill:#F0E9FF;stroke:#8980A0;stroke-width:1.25;stroke-linecap:round;stroke-linejoin:round;stroke-miterlimit:10;}
	.st4{fill:none;stroke:#8980A0;stroke-linecap:round;stroke-miterlimit:10;}
	.st5{fill:none;stroke:#8980A0;stroke-width:1.25;stroke-linecap:round;stroke-linejoin:round;stroke-miterlimit:10;}
	.st6{fill:none;stroke:#8980A0;stroke-width:0.75;stroke-linecap:round;stroke-linejoin:round;stroke-miterlimit:10;}
</style>
<g>
	<circle id="XMLID_1176_" class="st0" cx="31.4" cy="32.3" r="27"/>
	<polyline id="Rectangle-4-Copy-2" class="st1" points="47.5,14.3 42.1,14.3 42.1,19.7 47.5,19.7 	"/>
	<path class="st2" d="M27.5,22h-7.3c-0.5,0-1,0.5-1,1.2l-0.1,1.3c-0.1,0.7-0.5,1.2-1,1.2h-0.2c-0.7,0-1.3,0.7-1.4,1.6l-0.1,1"/>
	<path class="st2" d="M48.2,44.6L49.7,26c0.1-1-0.6-1.9-1.8-1.9H29.6"/>
	<path class="st3" d="M21,32.2h20.9c0.8,0,1.5,0.5,1.7,1.3l4,14.9H15.3c-0.6,0-1.1-0.4-1.3-1L9.3,30c-0.2-0.8,0.4-1.7,1.3-1.7h7
		c0.8,0,1.5,0.5,1.7,1.3l0.4,1.6C19.9,31.8,20.4,32.2,21,32.2z"/>
	<polyline class="st4" points="41.9,27 47.2,27 46.5,37.3 	"/>
	<polyline class="st4" points="21,29.8 21.2,27 26.5,27 	"/>
	<path class="st3" d="M26,26.3c1.6,1.5,3.6,2.6,5.9,3c5.2,0.8,10.1-2.3,11.7-7.2c-2.3,2.6-5.8,4.1-9.6,3.5c-1.7-0.2-3.2-0.9-4.6-1.9
		l2.7-2L24.4,20l-0.5,7.9L26,26.3z"/>
	<path class="st3" d="M42.6,13.9l-0.1-0.1c-1.5-1.5-3.5-2.6-5.9-3c-5.2-0.8-10.1,2.3-11.7,7.1c2.3-2.6,5.9-4,9.6-3.4
		c1.7,0.2,3.2,1,4.6,1.9l0.1,0.1l-2.8,2.1l7.7,1.8l0.6-7.9L42.6,13.9z"/>
	<line id="XMLID_1189_" class="st5" x1="3.5" y1="48.4" x2="10.7" y2="48.4"/>
	<line id="XMLID_1188_" class="st5" x1="51.9" y1="48.4" x2="58.1" y2="48.4"/>
	<line id="XMLID_1187_" class="st5" x1="13.5" y1="48.4" x2="50.4" y2="48.4"/>
	<line id="XMLID_1183_" class="st6" x1="11.7" y1="51.5" x2="17.6" y2="51.5"/>
	<line id="XMLID_1182_" class="st6" x1="21.2" y1="51.5" x2="27.1" y2="51.5"/>
	<line id="XMLID_1181_" class="st6" x1="30.5" y1="51.5" x2="42.7" y2="51.5"/>
	<line id="XMLID_1180_" class="st6" x1="46.3" y1="51.5" x2="53.2" y2="51.5"/>
	<rect id="Rectangle-4-Copy-9_2_" x="52" y="35.3" class="st1" width="2.4" height="3.7"/>
	<polyline id="Rectangle-4-Copy-16" class="st1" points="13.8,23.7 13.8,21.3 11.5,21.3 11.5,23.7 	"/>
	<rect id="Rectangle-4-Copy-19" x="17.9" y="15.8" class="st1" width="2.4" height="2.4"/>
</g>
<rect id="Rectangle-4-Copy-9" x="52.1" y="35.3" class="st1" width="2.4" height="3.7"/>
</svg>
