<?xml version="1.0" encoding="utf-8"?>
<!-- Generator: Adobe Illustrator 22.0.1, SVG Export Plug-In . SVG Version: 6.00 Build 0)  -->
<svg version="1.1" id="Layer_1" xmlns="http://www.w3.org/2000/svg" xmlns:xlink="http://www.w3.org/1999/xlink" x="0px" y="0px"
	 viewBox="0 0 60 62.2" style="enable-background:new 0 0 60 62.2;" xml:space="preserve">
<style type="text/css">
	.st0{fill:#FFFBF8;}
	.st1{fill:#FFE5D4;}
	.st2{fill:#F0E9FF;stroke:#8980A0;stroke-width:1.25;stroke-linecap:round;stroke-miterlimit:10;}
	.st3{fill:#F0E9FF;stroke:#8980A0;stroke-width:1.25;stroke-linecap:round;stroke-linejoin:round;stroke-miterlimit:10;}
	.st4{fill:none;stroke:#8980A0;stroke-linecap:round;stroke-miterlimit:10;}
	.st5{fill:none;stroke:#8980A0;stroke-width:1.25;stroke-linecap:round;stroke-linejoin:round;stroke-miterlimit:10;}
	.st6{fill:none;stroke:#8980A0;stroke-width:0.75;stroke-linecap:round;stroke-linejoin:round;stroke-miterlimit:10;}
</style>
<circle id="XMLID_1176_" class="st0" cx="30.3" cy="30.7" r="27"/>
<polyline id="Rectangle-4-Copy-2" class="st1" points="46.4,12.7 41,12.7 41,18.1 46.4,18.1 "/>
<path class="st2" d="M26.4,20.4h-7.3c-0.5,0-1,0.5-1,1.2L18,22.9c-0.1,0.7-0.5,1.2-1,1.2h-0.2c-0.7,0-1.3,0.7-1.4,1.6l-0.1,1"/>
<path class="st2" d="M47.1,43l1.5-18.1c0.1-1-0.6-1.9-1.8-1.9H28.5"/>
<path class="st3" d="M19.9,30.6h20.9c0.8,0,1.5,0.5,1.7,1.3l4,14.9H14.2c-0.6,0-1.1-0.4-1.3-1L8.2,28.4c-0.2-0.8,0.4-1.7,1.3-1.7h7
	c0.8,0,1.5,0.5,1.7,1.3l0.4,1.6C18.8,30.2,19.3,30.6,19.9,30.6z"/>
<polyline class="st4" points="38.6,26.1 46.1,26.1 45.1,35.7 "/>
<polyline class="st4" points="19.9,28.2 20.1,25.4 25.4,25.4 "/>
<path class="st3" d="M25.9,25.7c1.6,1.5,3.6,2.6,5.9,3c5.2,0.8,10.1-2.3,11.7-7.2c-2.3,2.6-5.8,4.1-9.6,3.5
	c-1.7-0.2-3.2-0.9-4.6-1.9l2.7-2l-7.7-1.7l-0.5,7.9L25.9,25.7z"/>
<path class="st3" d="M42.5,13.3l-0.1-0.1c-1.5-1.5-3.5-2.6-5.9-3c-5.2-0.8-10.1,2.3-11.7,7.1c2.3-2.6,5.9-4,9.6-3.4
	c1.7,0.2,3.2,1,4.6,1.9l0.1,0.1L36.3,18l7.7,1.8l0.6-7.9L42.5,13.3z"/>
<line id="XMLID_1189_" class="st5" x1="2.4" y1="46.8" x2="9.6" y2="46.8"/>
<line id="XMLID_1188_" class="st5" x1="52.1" y1="46.8" x2="57" y2="46.8"/>
<line id="XMLID_1187_" class="st5" x1="12.4" y1="46.8" x2="49.3" y2="46.8"/>
<line id="XMLID_1183_" class="st6" x1="10.6" y1="49.9" x2="16.5" y2="49.9"/>
<line id="XMLID_1182_" class="st6" x1="20.1" y1="49.9" x2="26" y2="49.9"/>
<line id="XMLID_1181_" class="st6" x1="29.4" y1="49.9" x2="41.6" y2="49.9"/>
<line id="XMLID_1180_" class="st6" x1="45.2" y1="49.9" x2="52.1" y2="49.9"/>
<rect id="Rectangle-4-Copy-9" x="50.9" y="33.7" class="st1" width="2.4" height="3.7"/>
<polyline id="Rectangle-4-Copy-16" class="st1" points="12.7,22.1 12.7,19.7 10.4,19.7 10.4,22.1 "/>
<rect id="Rectangle-4-Copy-19" x="16.8" y="14.2" class="st1" width="2.4" height="2.4"/>
</svg>
