<?xml version="1.0" encoding="utf-8"?>
<!-- Generator: Adobe Illustrator 22.0.1, SVG Export Plug-In . SVG Version: 6.00 Build 0)  -->
<svg version="1.1" id="Layer_1" xmlns="http://www.w3.org/2000/svg" xmlns:xlink="http://www.w3.org/1999/xlink" x="0px" y="0px"
	 viewBox="0 0 61.5 63.7" style="enable-background:new 0 0 61.5 63.7;" xml:space="preserve">
<style type="text/css">
	.st0{fill:none;stroke:#8980A0;stroke-width:1.25;stroke-linecap:round;stroke-linejoin:round;stroke-miterlimit:10;}
	.st1{fill:#FFE5D4;}
	.st2{fill:#FFFBF8;}
	.st3{fill:#F0E9FF;stroke:#8980A0;stroke-width:1.25;stroke-linecap:round;stroke-miterlimit:10;}
	.st4{fill:#F0E9FF;stroke:#8980A0;stroke-linecap:round;stroke-miterlimit:10;}
	.st5{fill:#F0E9FF;stroke:#8980A0;stroke-width:1.25;stroke-linecap:round;stroke-linejoin:round;stroke-miterlimit:10;}
	.st6{fill:none;stroke:#8980A0;stroke-width:0.75;stroke-linecap:round;stroke-linejoin:round;stroke-miterlimit:10;}
</style>
<line id="XMLID_1188_" class="st0" x1="52" y1="48.4" x2="58.2" y2="48.4"/>
<rect id="Rectangle-4-Copy-9" x="52.1" y="35.3" class="st1" width="2.4" height="3.7"/>
<g>
	<circle id="XMLID_1176_" class="st2" cx="31.5" cy="32.3" r="27"/>
	<path class="st3" d="M30.9,22h-9.5c-0.7,0-1.3,0.5-1.3,1.2L20,24.5c-0.1,0.7-0.6,1.2-1.3,1.2h-0.2c-0.9,0-1.7,0.7-1.8,1.6l-0.1,1"
		/>
	<path class="st3" d="M48,44.6L49.9,26c0.1-1-0.8-1.9-2.2-1.9h-9.2"/>
	<polyline class="st4" points="38.5,27 47.3,27 46.2,37.2 	"/>
	<polyline class="st4" points="21.1,29.8 21.4,27 29.9,27 	"/>
	<polyline class="st5" points="35.8,30 36.9,19.4 40.6,19.4 34.6,12.9 27.1,19.4 30.8,19.4 29.7,30 	"/>
	<line id="XMLID_1189_" class="st0" x1="3.6" y1="48.4" x2="10.8" y2="48.4"/>
	<line id="XMLID_1187_" class="st0" x1="13.6" y1="48.4" x2="50.5" y2="48.4"/>
	<line id="XMLID_1183_" class="st6" x1="11.8" y1="51.5" x2="17.7" y2="51.5"/>
	<line id="XMLID_1182_" class="st6" x1="21.3" y1="51.5" x2="27.2" y2="51.5"/>
	<line id="XMLID_1181_" class="st6" x1="30.6" y1="51.5" x2="42.8" y2="51.5"/>
	<line id="XMLID_1180_" class="st6" x1="46.4" y1="51.5" x2="53.3" y2="51.5"/>
	<path class="st5" d="M21.1,32.2H42c0.8,0,1.5,0.5,1.7,1.3l4,14.9H15.4c-0.6,0-1.1-0.4-1.3-1L9.4,30c-0.2-0.8,0.4-1.7,1.3-1.7h7
		c0.8,0,1.5,0.5,1.7,1.3l0.4,1.6C20,31.8,20.5,32.2,21.1,32.2z"/>
	<polyline id="Rectangle-4-Copy-2" class="st1" points="47.6,14.3 42.2,14.3 42.2,19.7 47.6,19.7 	"/>
	<polyline id="Rectangle-4-Copy-16" class="st1" points="13.9,23.7 13.9,21.3 11.6,21.3 11.6,23.7 	"/>
	<rect id="Rectangle-4-Copy-19" x="18" y="15.8" class="st1" width="2.4" height="2.4"/>
</g>
</svg>
