<svg width="16" height="16" viewBox="0 0 16 16" fill="none" xmlns="http://www.w3.org/2000/svg">
<path fill-rule="evenodd" clip-rule="evenodd" d="M6.16111 2.02586C6.96819 0.658046 9.03285 0.658046 9.83888 2.02586L15.7258 12.0029C16.5171 13.3445 15.5011 15 13.888 15H2.11303C0.498868 15 -0.517107 13.3445 0.274151 12.0029L6.16111 2.02586ZM9.055 11.9838C9.055 12.2505 8.94385 12.5063 8.746 12.6949C8.54815 12.8835 8.2798 12.9895 7.99999 12.9895C7.72019 12.9895 7.45184 12.8835 7.25399 12.6949C7.05614 12.5063 6.94498 12.2505 6.94498 11.9838C6.94498 11.717 7.05614 11.4612 7.25399 11.2726C7.45184 11.084 7.72019 10.978 7.99999 10.978C8.2798 10.978 8.54815 11.084 8.746 11.2726C8.94385 11.4612 9.055 11.717 9.055 11.9838V11.9838ZM7.99999 3.93779C7.72019 3.93779 7.45184 4.04375 7.25399 4.23236C7.05614 4.42098 6.94498 4.67679 6.94498 4.94353V7.96078C6.94498 8.22752 7.05614 8.48333 7.25399 8.67195C7.45184 8.86056 7.72019 8.96652 7.99999 8.96652C8.2798 8.96652 8.54815 8.86056 8.746 8.67195C8.94385 8.48333 9.055 8.22752 9.055 7.96078V4.94353C9.055 4.67679 8.94385 4.42098 8.746 4.23236C8.54815 4.04375 8.2798 3.93779 7.99999 3.93779Z" fill="#FFF5C1"/>
</svg>
