<svg width="16" height="16" viewBox="0 0 16 16" fill="none" xmlns="http://www.w3.org/2000/svg">
<path fill-rule="evenodd" clip-rule="evenodd" d="M14.6947 3.29279C14.8822 3.48031 14.9875 3.73462 14.9875 3.99979C14.9875 4.26495 14.8822 4.51926 14.6947 4.70679L6.69471 12.7068C6.50718 12.8943 6.25288 12.9996 5.98771 12.9996C5.72255 12.9996 5.46824 12.8943 5.28071 12.7068L1.28071 8.70679C1.09855 8.51818 0.997759 8.26558 1.00004 8.00339C1.00232 7.74119 1.10749 7.49038 1.29289 7.30497C1.4783 7.11956 1.72911 7.01439 1.99131 7.01211C2.25351 7.00983 2.50611 7.11063 2.69471 7.29279L5.98771 10.5858L13.2807 3.29279C13.4682 3.10532 13.7225 3 13.9877 3C14.2529 3 14.5072 3.10532 14.6947 3.29279Z" fill="#A5E3BC"/>
</svg>
