<?xml version="1.0" encoding="UTF-8" standalone="no"?>
<svg width="11px" height="13px" viewBox="0 0 11 13" version="1.1" xmlns="http://www.w3.org/2000/svg" xmlns:xlink="http://www.w3.org/1999/xlink">
    <!-- Generator: Sketch 41.2 (35397) - http://www.bohemiancoding.com/sketch -->
    <title>Group</title>
    <desc>Created with Sketch.</desc>
    <defs></defs>
    <g id="SMP-flows" stroke="none" stroke-width="1" fill="none" fill-rule="evenodd">
        <g id="Bob_4" transform="translate(-843.000000, -164.000000)">
            <g id="Group" transform="translate(843.000000, 164.000000)">
                <path d="M3.05555556,5.90909091 L7.94444444,5.90909091 L7.94444444,4.13636364 C7.94444444,3.48389825 7.70573155,2.9268489 7.22829861,2.46519886 C6.75086567,2.00354883 6.17477189,1.77272727 5.5,1.77272727 C4.82522811,1.77272727 4.24913433,2.00354883 3.77170139,2.46519886 C3.29426845,2.9268489 3.05555556,3.48389825 3.05555556,4.13636364 L3.05555556,5.90909091 Z M11,6.79545455 L11,12.1136364 C11,12.3598497 10.9108805,12.5691279 10.7326389,12.7414773 C10.5543973,12.9138266 10.3379642,13 10.0833333,13 L0.916666667,13 C0.662035764,13 0.445602743,12.9138266 0.267361111,12.7414773 C0.0891194792,12.5691279 0,12.3598497 0,12.1136364 L0,6.79545455 C0,6.54924119 0.0891194792,6.33996298 0.267361111,6.16761364 C0.445602743,5.99526429 0.662035764,5.90909091 0.916666667,5.90909091 L1.22222222,5.90909091 L1.22222222,4.13636364 C1.22222222,3.00378222 1.64235691,2.03125406 2.48263889,1.21875 C3.32292087,0.406245937 4.32869785,0 5.5,0 C6.67130215,0 7.67707913,0.406245937 8.51736111,1.21875 C9.35764309,2.03125406 9.77777778,3.00378222 9.77777778,4.13636364 L9.77777778,5.90909091 L10.0833333,5.90909091 C10.3379642,5.90909091 10.5543973,5.99526429 10.7326389,6.16761364 C10.9108805,6.33996298 11,6.54924119 11,6.79545455 L11,6.79545455 Z" id="-copy-2" fill="#7ED321"></path>
                <path d="M8.32323171,8.00494487 L5.22056283,11.0050462 C5.15957641,11.0640165 5.08715611,11.0935013 5.00329978,11.0935013 C4.91944344,11.0935013 4.84702315,11.0640165 4.78603672,11.0050462 L3.14703474,9.42022608 C3.08604831,9.36125573 3.05555556,9.2912295 3.05555556,9.21014527 C3.05555556,9.12906105 3.08604831,9.05903482 3.14703474,9.00006447 L3.56631431,8.59464537 C3.62730074,8.53567503 3.69972103,8.5061903 3.78357737,8.5061903 C3.8674337,8.5061903 3.939854,8.53567503 4.00084042,8.59464537 L5.00329978,9.56396558 L7.46942602,7.17936417 C7.53041245,7.12039382 7.60283274,7.09090909 7.68668908,7.09090909 C7.77054541,7.09090909 7.8429657,7.12039382 7.90395213,7.17936417 L8.32323171,7.58478326 C8.38421813,7.64375361 8.41471089,7.71377984 8.41471089,7.79486407 C8.41471089,7.87594829 8.38421813,7.94597453 8.32323171,8.00494487 L8.32323171,8.00494487 Z" id="Path" fill="#FFFFFF"></path>
            </g>
        </g>
    </g>
</svg>