<svg width="66" height="66" viewBox="0 0 66 66" fill="none" xmlns="http://www.w3.org/2000/svg">
<path d="M50.28 50.2799C45.3072 54.0704 39.2519 56.1704 33 56.2726C12.6364 56.2726 1 32.9999 1 32.9999C4.61859 26.2563 9.63748 20.3645 15.72 15.7199L50.28 50.2799ZM26.8909 10.4253C28.8933 9.95659 30.9435 9.72229 33 9.72712C53.3636 9.72712 65 32.9999 65 32.9999C63.2341 36.3034 61.1282 39.4136 58.7164 42.2799L26.8909 10.4253ZM39.1673 39.1671C38.3683 40.0246 37.4048 40.7123 36.3343 41.1893C35.2637 41.6663 34.1081 41.9228 32.9363 41.9435C31.7644 41.9641 30.6005 41.7486 29.5138 41.3096C28.4271 40.8707 27.4399 40.2174 26.6112 39.3887C25.7825 38.5599 25.1291 37.5728 24.6902 36.4861C24.2513 35.3994 24.0357 34.2354 24.0564 33.0636C24.0771 31.8918 24.3336 30.7361 24.8106 29.6656C25.2875 28.5951 25.9753 27.6316 26.8327 26.8326" fill="#FEF3C7"/>
<path d="M39.1673 39.1671C38.3683 40.0246 37.4048 40.7123 36.3343 41.1893C35.2637 41.6663 34.1081 41.9228 32.9363 41.9435C31.7644 41.9641 30.6005 41.7486 29.5138 41.3096C28.4271 40.8707 27.4399 40.2174 26.6112 39.3887C25.7825 38.5599 25.1291 37.5728 24.6902 36.4861C24.2513 35.3994 24.0357 34.2354 24.0564 33.0636C24.0771 31.8918 24.3336 30.7361 24.8106 29.6656C25.2875 28.5951 25.9753 27.6316 26.8327 26.8326M50.28 50.2799C45.3072 54.0704 39.2519 56.1704 33 56.2726C12.6364 56.2726 1 32.9999 1 32.9999C4.61859 26.2563 9.63748 20.3645 15.72 15.7199L50.28 50.2799ZM26.8909 10.4253C28.8933 9.95659 30.9435 9.72229 33 9.72712C53.3636 9.72712 65 32.9999 65 32.9999C63.2341 36.3034 61.1282 39.4136 58.7164 42.2799L26.8909 10.4253Z" stroke="#D97706" stroke-width="2" stroke-linecap="round" stroke-linejoin="round"/>
<path d="M1 1L65 65" stroke="#D97706" stroke-width="2" stroke-linecap="round" stroke-linejoin="round"/>
</svg>
