<svg width="54" height="66" viewBox="0 0 54 66" fill="none" xmlns="http://www.w3.org/2000/svg">
<path d="M33 1H7.4C5.70261 1 4.07475 1.67428 2.87452 2.87452C1.67428 4.07475 1 5.70261 1 7.4V58.6C1 60.2974 1.67428 61.9253 2.87452 63.1255C4.07475 64.3257 5.70261 65 7.4 65H45.8C47.4974 65 49.1253 64.3257 50.3255 63.1255C51.5257 61.9253 52.2 60.2974 52.2 58.6V20.2L33 1Z" fill="#FEF3C7" stroke="#D97706" stroke-width="2" stroke-linecap="round" stroke-linejoin="round"/>
<path d="M33 1V20.2H52.2" stroke="#D97706" stroke-width="2" stroke-linecap="round" stroke-linejoin="round"/>
<path d="M39.4 36.2002H13.8" stroke="#D97706" stroke-width="2" stroke-linecap="round" stroke-linejoin="round"/>
<path d="M39.4 49H13.8" stroke="#D97706" stroke-width="2" stroke-linecap="round" stroke-linejoin="round"/>
<path d="M20.2 23.3999H17H13.8" stroke="#D97706" stroke-width="2" stroke-linecap="round" stroke-linejoin="round"/>
</svg>
