<?xml version="1.0" encoding="utf-8"?>
<!-- Generator: Adobe Illustrator 22.0.1, SVG Export Plug-In . SVG Version: 6.00 Build 0)  -->
<svg version="1.1" id="Layer_1" xmlns="http://www.w3.org/2000/svg" xmlns:xlink="http://www.w3.org/1999/xlink" x="0px" y="0px"
	 viewBox="0 0 61.1 61" style="enable-background:new 0 0 61.1 61;" xml:space="preserve">
<style type="text/css">
	.st0{fill:#FFF1F1;}
	.st1{fill:#F8C8BC;}
	.st2{fill:#D3D3D3;stroke:#3C3737;stroke-linecap:round;stroke-linejoin:round;stroke-miterlimit:10;}
	.st3{fill:none;stroke:#3C3737;stroke-width:1.5;stroke-linejoin:round;stroke-miterlimit:10;}
	.st4{fill:#FFF3F3;stroke:#3C3737;stroke-linecap:round;stroke-linejoin:round;stroke-miterlimit:10;}
	.st5{fill:none;stroke:#3C3737;stroke-width:1.5;stroke-linecap:round;stroke-linejoin:round;stroke-miterlimit:10;}
	.st6{fill:none;stroke:#3C3737;stroke-width:0.75;stroke-linecap:round;stroke-linejoin:round;stroke-miterlimit:10;}
</style>
<g>
	<circle id="XMLID_1176_" class="st0" cx="29.8" cy="30.5" r="27"/>
	<polyline id="Rectangle-4-Copy-2" class="st1" points="43.8,13.8 40.8,13.8 40.8,16.8 43.8,16.8 	"/>
	<rect id="Rectangle-4-Copy-9" x="45.1" y="27.1" class="st1" width="2.7" height="4.2"/>
	<polyline id="Rectangle-4-Copy-16" class="st1" points="14.8,23.8 14.8,21.4 12.4,21.4 12.4,23.8 	"/>
	<rect id="Rectangle-4-Copy-19" x="16.9" y="14.6" class="st1" width="2.7" height="2.7"/>
	<rect x="16.8" y="24.2" class="st2" width="26" height="19.7"/>
	<path class="st3" d="M36.9,22.8v-5.4c0-2-2.5-3.6-5.3-3.6H28c-2.9,0-5.4,1.6-5.4,3.6v5.4"/>
	<polygon class="st4" points="34.6,30.7 32.5,28.7 29.8,31.4 27,28.7 25,30.7 27.7,33.4 25,36.1 27,38.3 29.8,35.6 32.5,38.3 
		34.6,36.1 31.9,33.4 	"/>
	<line id="XMLID_1189_" class="st5" x1="3.6" y1="44.4" x2="10.8" y2="44.4"/>
	<line id="XMLID_1188_" class="st5" x1="52" y1="44.4" x2="58.2" y2="44.4"/>
	<line id="XMLID_1187_" class="st5" x1="13.6" y1="44.4" x2="50.5" y2="44.4"/>
	<line id="XMLID_1183_" class="st6" x1="11.8" y1="47.4" x2="17.7" y2="47.4"/>
	<line id="XMLID_1182_" class="st6" x1="21.3" y1="47.4" x2="27.2" y2="47.4"/>
	<line id="XMLID_1181_" class="st6" x1="30.6" y1="47.4" x2="42.8" y2="47.4"/>
	<line id="XMLID_1180_" class="st6" x1="46.4" y1="47.4" x2="53.3" y2="47.4"/>
</g>
</svg>
