<?xml version="1.0" encoding="utf-8"?>
<!-- Generator: Adobe Illustrator 22.0.1, SVG Export Plug-In . SVG Version: 6.00 Build 0)  -->
<svg version="1.1" id="Layer_1" xmlns="http://www.w3.org/2000/svg" xmlns:xlink="http://www.w3.org/1999/xlink" x="0px" y="0px"
	 viewBox="0 0 56 57" style="enable-background:new 0 0 56 57;" xml:space="preserve">
<style type="text/css">
	.st0{fill:#D3D3D3;stroke:#3C3737;stroke-width:1.5;stroke-linecap:round;stroke-linejoin:round;stroke-miterlimit:10;}
	.st1{fill:none;stroke:#3C3737;stroke-width:1.25;stroke-linecap:round;stroke-linejoin:round;stroke-miterlimit:10;}
	.st2{fill:none;stroke:#3C3737;stroke-width:1.5;stroke-linejoin:round;stroke-miterlimit:10;}
	.st3{fill:#FFF3F3;stroke:#3C3737;stroke-linecap:round;stroke-linejoin:round;stroke-miterlimit:10;}
</style>
<rect x="17.9" y="25.2" class="st0" width="18.1" height="13.7"/>
<circle class="st1" cx="26.9" cy="29.3" r="21.1"/>
<path class="st1" d="M26.9,47c-9.8,0-17.7-8-17.7-17.7c0-9.8,8-17.7,17.7-17.7s17.7,8,17.7,17.7S36.6,47,26.9,47z"/>
<path class="st2" d="M31.9,24.2v-3.8c0-1.4-1.7-2.5-3.7-2.5h-2.5c-2,0-3.8,1.1-3.8,2.5v3.8"/>
<polygon class="st3" points="30.3,29.7 28.9,28.3 27,30.2 25,28.3 23.6,29.7 25.5,31.6 23.6,33.5 25,35 27,33.1 28.9,35 30.3,33.5 
	28.4,31.6 "/>
</svg>
