<?xml version="1.0" encoding="utf-8"?>
<!-- Generator: Adobe Illustrator 21.0.2, SVG Export Plug-In . SVG Version: 6.00 Build 0)  -->
<svg version="1.1" id="Layer_1" xmlns="http://www.w3.org/2000/svg" xmlns:xlink="http://www.w3.org/1999/xlink" x="0px" y="0px"
	 viewBox="0 0 56 57" style="enable-background:new 0 0 56 57;" xml:space="preserve">
<style type="text/css">
	.st0{fill:#9E9E9E;stroke:#3C3737;stroke-width:1.5;stroke-linecap:round;stroke-linejoin:round;stroke-miterlimit:10;}
	.st1{fill:none;stroke:#3C3737;stroke-width:1.5;stroke-linecap:round;stroke-linejoin:round;stroke-miterlimit:10;}
	.st2{fill:none;stroke:#3C3737;stroke-width:1.25;stroke-linecap:round;stroke-linejoin:round;stroke-miterlimit:10;}
	.st3{fill:#FBE9E7;stroke:#3C3737;stroke-linecap:round;stroke-linejoin:round;stroke-miterlimit:10;}
</style>
<rect x="17.9" y="26.4" class="st0" width="18.1" height="12.5"/>
<path class="st1" d="M28.2,16.8h-2.5c-2,0-3.8,1.7-3.8,3.8v5.9h10v-5.9C31.9,18.5,30.2,16.8,28.2,16.8z"/>
<circle class="st2" cx="26.9" cy="29.3" r="21.1"/>
<polygon class="st3" points="31.2,30.2 29.4,28.4 27,30.8 24.5,28.4 22.7,30.2 25.1,32.7 22.7,35.1 24.5,37 27,34.5 29.4,37
	31.2,35.1 28.8,32.7 "/>
<path class="st2" d="M26.9,47c-9.8,0-17.7-8-17.7-17.7c0-9.8,8-17.7,17.7-17.7s17.7,8,17.7,17.7S36.6,47,26.9,47z"/>
</svg>
