<?xml version="1.0" encoding="UTF-8"?>
<svg width="84px" height="75px" viewBox="0 0 84 75" version="1.1" xmlns="http://www.w3.org/2000/svg" xmlns:xlink="http://www.w3.org/1999/xlink">
    <!-- Generator: Sketch 43.1 (39012) - http://www.bohemiancoding.com/sketch -->
    <title>Group 5 Copy</title>
    <desc>Created with Sketch.</desc>
    <defs>
        <linearGradient x1="-1.11022302e-14%" y1="50%" x2="100%" y2="50%" id="linearGradient-1">
            <stop stop-color="#FBDA61" offset="0%"></stop>
            <stop stop-color="#F76B1C" offset="100%"></stop>
        </linearGradient>
        <linearGradient x1="100%" y1="50%" x2="2.30986926%" y2="50%" id="linearGradient-2">
            <stop stop-color="#5BEDAC" offset="0%"></stop>
            <stop stop-color="#2DAB49" offset="100%"></stop>
        </linearGradient>
    </defs>
    <g id="SMP-flows" stroke="none" stroke-width="1" fill="none" fill-rule="evenodd">
        <g id="Group-5-Copy" transform="translate(2.000000, 3.000000)">
            <g id="Group-3">
                <g id="Group" transform="translate(0.385953, 0.000000)">
                    <g id="Group-2" transform="translate(25.000000, 27.000000)" fill="#F2565B">
                        <path d="M21.8184781,11.8138526 C21.4658115,11.8138526 21.1795892,11.4943023 21.1795892,11.1005706 L21.1795892,0.713282039 C21.1795892,0.319550353 21.4658115,0 21.8184781,0 C22.1711448,0 22.457367,0.319550353 22.457367,0.713282039 L22.457367,11.1005706 C22.457367,11.4943023 22.1711448,11.8138526 21.8184781,11.8138526" id="Fill-11"></path>
                        <path d="M3.0673777,6.02127027 C2.72463441,5.65698157 2.34424879,5.47271927 1.92622084,5.47271927 C1.45271999,5.47271927 1.0465791,5.65698157 0.703835803,6.02127027 C0.36109251,6.38767692 0.192692627,6.7922068 0.192692627,7.24333176 C0.192692627,7.74740565 0.36109251,8.1837049 0.703835803,8.54799359 C1.0465791,8.91228228 1.45271999,9.09442663 1.92622084,9.09442663 C2.34424879,9.09442663 2.72463441,8.91228228 3.0673777,8.54799359 C3.410121,8.1837049 3.57852088,7.74740565 3.57852088,7.24333176 C3.57852088,6.7922068 3.410121,6.38767692 3.0673777,6.02127027 L3.0673777,6.02127027 Z" id="Path" stroke="#F2565B" stroke-width="1.3"></path>
                        <path d="M9.80337306,6.02127027 C9.48836621,5.65698157 9.09411237,5.47271927 8.62061152,5.47271927 C8.14909184,5.47271927 7.754838,5.65698157 7.43983116,6.02127027 C7.12482431,6.38767692 6.96633031,6.7922068 6.96633031,7.24333176 C6.96633031,7.74740565 7.12482431,8.1837049 7.43983116,8.54799359 C7.754838,8.91228228 8.14909184,9.09442663 8.62061152,9.09442663 C9.09411237,9.09442663 9.48836621,8.91228228 9.80337306,8.54799359 C10.1183799,8.1837049 10.2768739,7.74740565 10.2768739,7.24333176 C10.2768739,6.7922068 10.1183799,6.38767692 9.80337306,6.02127027 L9.80337306,6.02127027 Z" id="Path" stroke="#F2565B" stroke-width="1.3"></path>
                        <path d="M16.5393684,6.02127027 C16.1966251,5.65698157 15.7904842,5.47271927 15.3189645,5.47271927 C14.8969742,5.47271927 14.5165886,5.65698157 14.1758265,6.02127027 C13.8330832,6.38767692 13.6627022,6.7922068 13.6627022,7.24333176 C13.6627022,7.74740565 13.8330832,8.1837049 14.1758265,8.54799359 C14.5165886,8.91228228 14.8969742,9.09442663 15.3189645,9.09442663 C15.7904842,9.09442663 16.1966251,8.91228228 16.5393684,8.54799359 C16.8801305,8.1837049 17.0505116,7.74740565 17.0505116,7.24333176 C17.0505116,6.7922068 16.8801305,6.38767692 16.5393684,6.02127027 L16.5393684,6.02127027 Z" id="Path" stroke="#F2565B" stroke-width="1.3"></path>
                    </g>
                    <path d="M35.149285,69.3323551 C15.737116,69.3323551 0,53.8115371 0,34.6661775 C0,15.5227439 15.737116,0 35.149285,0 C54.5614541,0 70.2985701,15.5227439 70.2985701,34.6661775 C70.2985701,53.8115371 54.5614541,69.3323551 35.149285,69.3323551 Z" id="Stroke-7-Copy-8" stroke="url(#linearGradient-1)" stroke-width="4.55999994"></path>
                </g>
                <path d="M62.4447417,65.6577884 C62.0749962,66.0287628 61.6359299,66.2142473 61.1275298,66.2142473 C60.6191297,66.2142473 60.1800635,66.0287628 59.8103179,65.6577884 L49.8734561,55.6879 C49.5037106,55.3169256 49.3188406,54.8764 49.3188406,54.3663102 C49.3188406,53.8562203 49.5037106,53.4156948 49.8734561,53.0447203 L52.415444,50.4942838 C52.7851896,50.1233093 53.2242558,49.9378249 53.7326559,49.9378249 C54.2410561,49.9378249 54.6801223,50.1233093 55.0498678,50.4942838 L61.1275298,56.5921457 L76.0790405,41.5909416 C76.448786,41.2199672 76.8878523,41.0344828 77.3962524,41.0344828 C77.9046525,41.0344828 78.3437188,41.2199672 78.7134643,41.5909416 L81.2554522,44.1413782 C81.6251977,44.5123526 81.8100677,44.9528782 81.8100677,45.462968 C81.8100677,45.9730579 81.6251977,46.4135834 81.2554522,46.7845579 L62.4447417,65.6577884 Z" id="Path-Copy-2" fill="url(#linearGradient-2)"></path>
            </g>
            <g id="Group-4" transform="translate(14.000000, 17.000000)" fill="#F2A641">
                <g id="Group-3">
                    <path d="M44,33.0909091 L24.75,33.0909091 L24.75,35.8409091 L33,35.8409091 L33,38.5909091 L11,38.5909091 L11,35.8409091 L19.25,35.8409091 L19.25,33.0909091 L0,33.0909091 L0,0.0909090909 L44,0.0909090909 L44,33.0909091 Z M2.75,30.3409091 L41.25,30.3409091 L41.25,2.84090909 L2.75,2.84090909 L2.75,30.3409091 Z" id="Z-Copy-2"></path>
                </g>
            </g>
        </g>
    </g>
</svg>