<?xml version="1.0" encoding="UTF-8" standalone="no"?>
<svg width="234px" height="58px" viewBox="0 0 234 58" version="1.1" xmlns="http://www.w3.org/2000/svg" xmlns:xlink="http://www.w3.org/1999/xlink">
    <!-- Generator: Sketch 41.2 (35397) - http://www.bohemiancoding.com/sketch -->
    <title>Group 19</title>
    <desc>Created with Sketch.</desc>
    <defs>
        <linearGradient x1="100%" y1="50%" x2="3.061617e-15%" y2="50%" id="linearGradient-1">
            <stop stop-color="#FBDA61" offset="0%"></stop>
            <stop stop-color="#F76B1C" offset="100%"></stop>
        </linearGradient>
        <linearGradient x1="-1.11022302e-14%" y1="50%" x2="100%" y2="50%" id="linearGradient-2">
            <stop stop-color="#FBDA61" offset="0%"></stop>
            <stop stop-color="#F76B1C" offset="100%"></stop>
        </linearGradient>
    </defs>
    <g id="SMP-flows" stroke="none" stroke-width="1" fill="none" fill-rule="evenodd">
        <g id="Bob_4" transform="translate(-615.000000, -256.000000)">
            <g id="Group-28-Copy" transform="translate(560.000000, 200.000000)">
                <g id="Group-26" transform="translate(42.000000, 56.000000)">
                    <g id="Group-19" transform="translate(14.000000, 0.000000)">
                        <g id="Group" transform="translate(107.906977, 0.000000)">
                            <path d="M5.62015504,11.1038961 L14.6124031,11.1038961 L14.6124031,7.77272727 C14.6124031,6.54666595 14.1733329,5.49990288 13.2951793,4.63240666 C12.4170256,3.76491044 11.3574028,3.33116883 10.1162791,3.33116883 C8.87515529,3.33116883 7.81553249,3.76491044 6.93737888,4.63240666 C6.05922526,5.49990288 5.62015504,6.54666595 5.62015504,7.77272727 L5.62015504,11.1038961 Z M20.2325581,12.7694805 L20.2325581,22.762987 C20.2325581,23.2256517 20.0686386,23.6189107 19.7407946,23.942776 C19.4129506,24.2666412 19.0148602,24.4285714 18.5465116,24.4285714 L1.68604651,24.4285714 C1.21769792,24.4285714 0.819607582,24.2666412 0.491763566,23.942776 C0.163919549,23.6189107 0,23.2256517 0,22.762987 L0,12.7694805 C0,12.3068159 0.163919549,11.9135568 0.491763566,11.5896916 C0.819607582,11.2658263 1.21769792,11.1038961 1.68604651,11.1038961 L2.24806202,11.1038961 L2.24806202,7.77272727 C2.24806202,5.64446988 3.02082561,3.81697192 4.56637597,2.29017857 C6.11192633,0.763385223 7.96187553,0 10.1162791,0 C12.2706826,0 14.1206318,0.763385223 15.6661822,2.29017857 C17.2117325,3.81697192 17.9844961,5.64446988 17.9844961,7.77272727 L17.9844961,11.1038961 L18.5465116,11.1038961 C19.0148602,11.1038961 19.4129506,11.2658263 19.7407946,11.5896916 C20.0686386,11.9135568 20.2325581,12.3068159 20.2325581,12.7694805 L20.2325581,12.7694805 Z" id="-copy-2" fill="#7ED321"></path>
                            <path d="M15.3091154,15.042259 L9.60230373,20.6798121 C9.49012996,20.7906245 9.35692562,20.8460298 9.20268669,20.8460298 C9.04844777,20.8460298 8.91524342,20.7906245 8.80306966,20.6798121 L5.78841484,17.7017435 C5.67624108,17.5909311 5.62015504,17.4593433 5.62015504,17.3069763 C5.62015504,17.1546092 5.67624108,17.0230215 5.78841484,16.9122091 L6.55960561,16.1503776 C6.67177937,16.0395652 6.80498372,15.9841598 6.95922264,15.9841598 C7.11346157,15.9841598 7.24666591,16.0395652 7.35883968,16.1503776 L9.20268669,17.9718474 L13.7386906,13.4908931 C13.8508643,13.3800807 13.9840687,13.3246753 14.1383076,13.3246753 C14.2925465,13.3246753 14.4257509,13.3800807 14.5379246,13.4908931 L15.3091154,14.2527246 C15.4212892,14.363537 15.4773752,14.4951248 15.4773752,14.6474918 C15.4773752,14.7998589 15.4212892,14.9314466 15.3091154,15.042259 L15.3091154,15.042259 Z" id="Path" fill="#FFFFFF"></path>
                        </g>
                        <path d="M175.47273,29.459596 L56.8486399,29.459596" id="Stroke-13-Copy" stroke="url(#linearGradient-1)" stroke-width="1.57464" stroke-linecap="round" transform="translate(116.156517, 29.211129) scale(-1, 1) translate(-116.156517, -29.211129) "></path>
                        <rect id="Rectangle-3-Copy-9" fill="#E9E9EA" x="16.1860465" y="16.2857143" width="1.34883721" height="21.7142857" rx="0.674418605"></rect>
                        <g id="Group-16" transform="translate(175.348837, 1.357143)">
                            <path d="M28.5393779,55.6428571 C13.0138638,55.6428571 0.427593029,43.1865853 0.427593029,27.8214286 C0.427593029,12.4578175 13.0138638,0 28.5393779,0 C44.064892,0 56.6511628,12.4578175 56.6511628,27.8214286 C56.6511628,43.1865853 44.064892,55.6428571 28.5393779,55.6428571 Z" id="Stroke-7" stroke="url(#linearGradient-2)" stroke-width="1.1337408" fill="#E8E8E7"></path>
                            <path d="M27.4149065,53.95671 C12.8209233,53.95671 0.989828727,42.2553637 0.989828727,27.8214286 C0.989828727,13.3889454 12.8209233,1.68614719 27.4149065,1.68614719 C42.0088898,1.68614719 53.8399843,13.3889454 53.8399843,27.8214286 C53.8399843,42.2553637 42.0088898,53.95671 27.4149065,53.95671 Z" id="Stroke-7-Copy" fill="#FFFFFF"></path>
                            <rect id="Rectangle-3-Copy-7" fill="#E9E9EA" transform="translate(40.346328, 37.938312) rotate(-90.000000) translate(-40.346328, -37.938312) " x="39.502974" y="31.1937229" width="1.68670709" height="13.4891775" rx="0.843353546"></rect>
                            <g id="Group-18" transform="translate(9.601892, 16.309113)">
                                <rect id="Rectangle-3" fill="#E9E9EA" x="33.555614" y="0.552358561" width="1.68670709" height="19.1096681" rx="0.843353546"></rect>
                                <rect id="Rectangle-3-Copy" fill="#E9E9EA" transform="translate(29.619964, 20.505100) rotate(-90.000000) translate(-29.619964, -20.505100) " x="28.7766106" y="10.9502662" width="1.68670709" height="19.1096681" rx="0.843353546"></rect>
                                <rect id="Rectangle-3-Copy-6" fill="#E9E9EA" transform="translate(25.122079, 18.818953) rotate(-90.000000) translate(-25.122079, -18.818953) " x="24.278725" y="9.26411902" width="1.68670709" height="19.1096681" rx="0.843353546"></rect>
                                <rect id="Rectangle-3-Copy-8" fill="#E9E9EA" transform="translate(30.182200, 1.957481) rotate(-90.000000) translate(-30.182200, -1.957481) " x="29.3388463" y="-2.53891128" width="1.68670709" height="8.99278499" rx="0.843353546"></rect>
                                <path d="M19.8570591,1.54095367 C19.7046198,1.54095367 19.6299556,1.64074875 19.6299556,1.84345753 C19.6299556,1.99626876 19.7046198,2.07267438 19.8570591,2.07267438 C20.0577191,2.07267438 20.1603824,1.99626876 20.1603824,1.84345753 C20.1603824,1.64074875 20.0577191,1.54095367 19.8570591,1.54095367 L19.8570591,1.54095367 Z M7.0521524,17.565862 L32.8890694,17.565862 L32.8890694,3.1345565 L30.5402588,3.1345565 L29.7827285,3.1345565 L28.7218749,3.1345565 L27.9643446,3.1345565 L26.6763875,3.1345565 L25.9173017,3.1345565 L7.0521524,3.1345565 L7.0521524,17.565862 Z M6.44550594,18.1739883 L33.4941604,18.1739883 L33.4941604,2.52798947 L6.44550594,2.52798947 L6.44550594,18.1739883 Z M5.15754885,19.3886817 L34.8598927,19.3886817 L34.8598927,1.99626876 C34.8598927,1.43959928 34.5814575,1.16048489 34.0245872,1.16048489 L5.99129885,1.16048489 C5.43442852,1.16048489 5.15754885,1.43959928 5.15754885,1.99626876 L5.15754885,19.3886817 Z M2.96117758,22.427754 L36.6020568,22.427754 L37.4358068,21.8196277 L2.05120789,21.8196277 L2.96117758,22.427754 Z M38.6475443,20.2244656 C38.6475443,20.0233161 38.544881,19.9204024 38.344221,19.9204024 L1.21745789,19.9204024 C1.01524241,19.9204024 0.914134664,20.0233161 0.914134664,20.2244656 L0.914134664,20.9854031 C0.914134664,21.0353007 0.990354347,21.1350957 1.14279371,21.287907 L1.14279371,21.2115014 L1.21745789,21.287907 L38.344221,21.287907 C38.544881,21.287907 38.6475443,21.1881119 38.6475443,20.9854031 L38.6475443,20.2244656 Z M39.177971,20.2244656 L39.177971,20.9854031 C39.177971,21.4407182 38.9508675,21.7182733 38.4951049,21.8196277 L36.8291604,22.9579154 L36.8291604,23.034321 L2.65785435,23.034321 L2.65785435,22.9579154 L0.990354347,21.8196277 C0.584367872,21.6683758 0.38370789,21.3892614 0.38370789,20.9854031 L0.38370789,20.2244656 C0.38370789,19.6677961 0.660587555,19.3886817 1.21745789,19.3886817 L4.5524579,19.3886817 L4.5524579,1.99626876 C4.5524579,1.64074875 4.69089773,1.31329612 4.9677774,1.00767366 C5.24465706,0.705169792 5.58531238,0.552358561 5.99129885,0.552358561 L34.0245872,0.552358561 C34.3776865,0.552358561 34.6950093,0.692695405 34.9718889,0.970250498 C35.2503241,1.24936489 35.3887639,1.59085121 35.3887639,1.99626876 L35.3887639,19.3886817 L38.344221,19.3886817 C38.8995359,19.3886817 39.177971,19.6677961 39.177971,20.2244656 L39.177971,20.2244656 Z" id="Fill-3" fill="#000000"></path>
                            </g>
                        </g>
                        <g id="Group-17" transform="translate(0.000000, 1.357143)">
                            <path d="M28.1117849,55.6428571 C12.5862708,55.6428571 0,43.1865853 0,27.8214286 C0,12.4578175 12.5862708,0 28.1117849,0 C43.637299,0 56.2235698,12.4578175 56.2235698,27.8214286 C56.2235698,43.1865853 43.637299,55.6428571 28.1117849,55.6428571 Z" id="Stroke-7-Copy-2" stroke="url(#linearGradient-2)" stroke-width="1.1337408" fill="#E8E8E7" transform="translate(28.111785, 27.821429) scale(-1, 1) translate(-28.111785, -27.821429) "></path>
                            <path d="M29.2362563,53.95671 C14.642273,53.95671 2.81117849,42.2553637 2.81117849,27.8214286 C2.81117849,13.3889454 14.642273,1.68614719 29.2362563,1.68614719 C43.8302395,1.68614719 55.6613341,13.3889454 55.6613341,27.8214286 C55.6613341,42.2553637 43.8302395,53.95671 29.2362563,53.95671 Z" id="Stroke-7-Copy-3" fill="#FFFFFF" transform="translate(29.236256, 27.821429) scale(-1, 1) translate(-29.236256, -27.821429) "></path>
                            <rect id="Rectangle-3-Copy-10" fill="#E9E9EA" transform="translate(19.678249, 35.690115) rotate(-90.000000) translate(-19.678249, -35.690115) " x="18.8348959" y="26.1352814" width="1.68670709" height="19.1096681" rx="0.843353546"></rect>
                            <rect id="Rectangle-3-Copy-11" fill="#E9E9EA" transform="translate(17.991542, 36.814214) rotate(-90.000000) translate(-17.991542, -36.814214) " x="17.1481888" y="30.0696248" width="1.68670709" height="13.4891775" rx="0.843353546"></rect>
                            <rect id="Rectangle-3-Copy-12" fill="#E9E9EA" transform="translate(23.613899, 34.003968) rotate(-90.000000) translate(-23.613899, -34.003968) " x="22.7705458" y="24.4491342" width="1.68670709" height="19.1096681" rx="0.843353546"></rect>
                            <rect id="Rectangle-3-Copy-13" fill="#E9E9EA" transform="translate(19.116014, 17.142496) rotate(-90.000000) translate(-19.116014, -17.142496) " x="18.2726602" y="12.6461039" width="1.68670709" height="8.99278499" rx="0.843353546"></rect>
                            <path d="M29.5935938,16.7259688 C29.4411544,16.7259688 29.3664903,16.8257639 29.3664903,17.0284727 C29.3664903,17.1812839 29.4411544,17.2576896 29.5935938,17.2576896 C29.7942538,17.2576896 29.896917,17.1812839 29.896917,17.0284727 C29.896917,16.8257639 29.7942538,16.7259688 29.5935938,16.7259688 L29.5935938,16.7259688 Z M16.7886871,32.7508772 L42.6256041,32.7508772 L42.6256041,18.3195717 L40.2767935,18.3195717 L39.5192631,18.3195717 L38.4584096,18.3195717 L37.7008793,18.3195717 L36.4129222,18.3195717 L35.6538364,18.3195717 L16.7886871,18.3195717 L16.7886871,32.7508772 Z M16.1820406,33.3590035 L43.230695,33.3590035 L43.230695,17.7130046 L16.1820406,17.7130046 L16.1820406,33.3590035 Z M14.8940835,34.5736969 L44.5964273,34.5736969 L44.5964273,17.1812839 C44.5964273,16.6246145 44.3179922,16.3455001 43.7611218,16.3455001 L15.7278335,16.3455001 C15.1709632,16.3455001 14.8940835,16.6246145 14.8940835,17.1812839 L14.8940835,34.5736969 Z M12.6977122,37.6127692 L46.3385915,37.6127692 L47.1723415,37.0046429 L11.7877426,37.0046429 L12.6977122,37.6127692 Z M48.3840789,35.4094807 C48.3840789,35.2083313 48.2814157,35.1054176 48.0807557,35.1054176 L10.9539926,35.1054176 C10.7517771,35.1054176 10.6506693,35.2083313 10.6506693,35.4094807 L10.6506693,36.1704183 C10.6506693,36.2203158 10.726889,36.3201109 10.8793284,36.4729222 L10.8793284,36.3965165 L10.9539926,36.4729222 L48.0807557,36.4729222 C48.2814157,36.4729222 48.3840789,36.3731271 48.3840789,36.1704183 L48.3840789,35.4094807 Z M48.9145057,35.4094807 L48.9145057,36.1704183 C48.9145057,36.6257334 48.6874021,36.9032885 48.2316396,37.0046429 L46.5656951,38.1429306 L46.5656951,38.2193362 L12.394389,38.2193362 L12.394389,38.1429306 L10.726889,37.0046429 C10.3209025,36.8533909 10.1202426,36.5742765 10.1202426,36.1704183 L10.1202426,35.4094807 C10.1202426,34.8528113 10.3971222,34.5736969 10.9539926,34.5736969 L14.2889926,34.5736969 L14.2889926,17.1812839 C14.2889926,16.8257639 14.4274324,16.4983113 14.7043121,16.1926888 C14.9811917,15.890185 15.321847,15.7373737 15.7278335,15.7373737 L43.7611218,15.7373737 C44.1142212,15.7373737 44.4315439,15.8777106 44.7084236,16.1552657 C44.9868588,16.4343801 45.1252986,16.7758664 45.1252986,17.1812839 L45.1252986,34.5736969 L48.0807557,34.5736969 C48.6360705,34.5736969 48.9145057,34.8528113 48.9145057,35.4094807 L48.9145057,35.4094807 Z" id="Fill-3-Copy" fill="#000000"></path>
                        </g>
                        <rect id="Rectangle-4" fill="#FFEDCF" x="60.3197901" y="14.5515873" width="8.68788018" height="8.74603175"></rect>
                        <rect id="Rectangle-4-Copy-3" fill="#FFD28A" x="63.5632974" y="35.3234127" width="6.31845832" height="6.36075036"></rect>
                        <rect id="Rectangle-4-Copy" fill="#F9CC85" x="76.5373269" y="21.1111111" width="4.73884374" height="4.77056277"></rect>
                        <rect id="Rectangle-4-Copy-4" fill="#F8C8BC" x="99.2418786" y="30.9503968" width="3.15922916" height="3.18037518"></rect>
                        <rect id="Rectangle-4-Copy-6" fill="#F8C8BC" x="92.7548638" y="24.390873" width="2.36942187" height="2.38528139"></rect>
                        <rect id="Rectangle-4-Copy-5" fill="#F8C8BC" x="83.0243417" y="34.2301587" width="3.94903645" height="3.97546898"></rect>
                        <rect id="Rectangle-4-Copy-14" fill="#F8C8BC" x="86.2678491" y="17.8313492" width="2.36942187" height="2.38528139"></rect>
                        <g id="Group-15" transform="translate(150.597412, 29.310516) scale(-1, 1) translate(-150.597412, -29.310516) translate(129.514614, 15.644841)">
                            <rect id="Rectangle-4-Copy-2" fill="#FFEDCF" x="0" y="0" width="8.68788018" height="8.74603175"></rect>
                            <rect id="Rectangle-4-Copy-7" fill="#FFD28A" x="4.3246765" y="20.7718254" width="6.31845832" height="6.36075036"></rect>
                            <rect id="Rectangle-4-Copy-9" fill="#F9CC85" x="16.2175369" y="5.46626984" width="4.73884374" height="4.77056277"></rect>
                            <rect id="Rectangle-4-Copy-13" fill="#F8C8BC" x="38.9220885" y="16.3988095" width="3.15922916" height="3.18037518"></rect>
                            <rect id="Rectangle-4-Copy-16" fill="#F8C8BC" x="32.4350737" y="8.74603175" width="2.36942187" height="2.38528139"></rect>
                            <rect id="Rectangle-4-Copy-18" fill="#F8C8BC" x="22.7045516" y="19.6785714" width="3.94903645" height="3.97546898"></rect>
                            <rect id="Rectangle-4-Copy-19" fill="#F8C8BC" x="25.948059" y="3.2797619" width="2.36942187" height="2.38528139"></rect>
                        </g>
                    </g>
                </g>
            </g>
        </g>
    </g>
</svg>