<?xml version="1.0" encoding="utf-8"?>
<!-- Generator: Adobe Illustrator 22.0.1, SVG Export Plug-In . SVG Version: 6.00 Build 0)  -->
<svg version="1.1" id="Layer_1" xmlns="http://www.w3.org/2000/svg" xmlns:xlink="http://www.w3.org/1999/xlink" x="0px" y="0px"
	 viewBox="0 0 52 53" style="enable-background:new 0 0 52 53;" xml:space="preserve">
<style type="text/css">
	.st0{fill:none;stroke:#89AF8F;stroke-miterlimit:10;}
	.st1{fill:#E1F9E3;stroke:#89AF8F;stroke-miterlimit:10;}
	.st2{fill:none;stroke:#89AF8F;stroke-linecap:round;stroke-linejoin:round;stroke-miterlimit:10;}
</style>
<g>
	<circle class="st0" cx="28.9" cy="27.3" r="21.1"/>
	<polygon class="st1" points="17.1,28.8 25.2,36.9 40.1,21.9 36.8,18.6 25.2,30.3 20.3,25.4 	"/>
	<path class="st2" d="M21.4,11.9c1.1-0.3,2.2-0.5,3.4-0.5"/>
	<path class="st2" d="M12.8,23.5c0-3.7,1.7-7,4.4-9.3"/>
	<path class="st2" d="M18.6,13.3c0.3-0.2,0.6-0.4,0.9-0.5"/>
	<path class="st2" d="M35.5,42.4c-1.1,0.3-2.2,0.5-3.4,0.5"/>
	<path class="st2" d="M44.2,30.8c0,3.7-1.7,7-4.4,9.3"/>
	<path class="st2" d="M38.4,41.1c-0.3,0.2-0.6,0.4-0.9,0.5"/>
</g>
</svg>
