<?xml version="1.0" encoding="utf-8"?>
<!-- Generator: Adobe Illustrator 21.0.2, SVG Export Plug-In . SVG Version: 6.00 Build 0)  -->
<svg version="1.1" id="Layer_1" xmlns="http://www.w3.org/2000/svg" xmlns:xlink="http://www.w3.org/1999/xlink" x="0px" y="0px"
	 viewBox="0 0 56 57" style="enable-background:new 0 0 56 57;" xml:space="preserve">
<style type="text/css">
	.st0{fill:none;stroke:#65727F;stroke-width:1.25;stroke-linecap:round;stroke-linejoin:round;stroke-miterlimit:10;}
	.st1{fill:#65727F;}
</style>
<circle class="st0" cx="26.9" cy="29.3" r="21.1"/>
<path class="st1" d="M32.1,27.2c0.4-0.2,1.4-1,1.4-2.6l0.1-3.3l0.4,0c0.2,0,0.4-0.1,0.4-0.3l0-1.8c0-0.2-0.1-0.4-0.3-0.4l-14.5-0.1
	c-0.2,0-0.4,0.1-0.4,0.3l0,1.8c0,0.2,0.1,0.4,0.3,0.4l0.4,0l-0.1,3.4c0,1.6,0.4,2,1.3,2.5l3.7,2.3l0,0.9c-1,0.5-3.4,1.9-3.7,2.2
	c-0.4,0.2-1.4,1-1.4,2.6l0,2.8l-0.4,0c-0.2,0-0.4,0.1-0.4,0.3l0,1.7c0,0.2,0.1,0.4,0.3,0.4l14.5,0.2c0.2,0,0.4-0.1,0.4-0.3l0-1.8
	c0-0.2-0.1-0.4-0.3-0.4l-0.4,0l0-2.8c0-1.6-0.4-2-1.3-2.5l-3.7-2.3l0-0.9C29.4,28.8,31.8,27.4,32.1,27.2z M27.4,31.3l4,2.5
	c0.3,0.2,0.5,0.3,0.6,0.4c0.1,0.2,0.2,0.5,0.1,0.9l0,2.8l-10.9-0.1l0-2.8c0-0.9,0.5-1.2,0.8-1.4c0.3-0.2,2.5-1.4,4-2.3
	c0.2-0.1,0.3-0.3,0.4-0.5l0.1-1.7c0-0.2-0.2-0.5-0.3-0.5L22,26l0,0c-0.3-0.2-0.5-0.3-0.6-0.4c-0.1-0.2-0.2-0.5-0.1-0.9l0.1-3.4
	l10.9,0.1l-0.1,3.3c0,0.9-0.5,1.2-0.8,1.4c-0.3,0.2-2.5,1.4-4,2.3c-0.2,0.1-0.3,0.3-0.4,0.5L27,30.6C27,31,27.2,31.1,27.4,31.3z"/>
<path class="st0" d="M26.9,47c-9.8,0-17.7-8-17.7-17.7c0-9.8,8-17.7,17.7-17.7s17.7,8,17.7,17.7S36.6,47,26.9,47z"/>
</svg>
