<?xml version="1.0" encoding="utf-8"?>
<!-- Generator: Adobe Illustrator 22.0.1, SVG Export Plug-In . SVG Version: 6.00 Build 0)  -->
<svg version="1.1" id="Layer_1" xmlns="http://www.w3.org/2000/svg" xmlns:xlink="http://www.w3.org/1999/xlink" x="0px" y="0px"
	 viewBox="0 0 57.7 57" style="enable-background:new 0 0 57.7 57;" xml:space="preserve">
<style type="text/css">
	.st0{fill:#FFF1F1;}
	.st1{fill:#F8C8BC;}
	.st2{fill:none;stroke:#65727F;stroke-width:1.5;stroke-linecap:round;stroke-linejoin:round;stroke-miterlimit:10;}
	.st3{fill:none;stroke:#65727F;stroke-width:0.75;stroke-linecap:round;stroke-linejoin:round;stroke-miterlimit:10;}
	.st4{fill:#65727F;}
</style>
<circle id="XMLID_1176_" class="st0" cx="27.6" cy="28.5" r="27"/>
<polyline id="Rectangle-4-Copy-2" class="st1" points="41.6,11.8 38.6,11.8 38.6,14.8 41.6,14.8 "/>
<rect id="Rectangle-4-Copy-9" x="42.9" y="25.1" class="st1" width="2.7" height="4.2"/>
<polyline id="Rectangle-4-Copy-16" class="st1" points="12.6,21.8 12.6,19.4 10.2,19.4 10.2,21.8 "/>
<rect id="Rectangle-4-Copy-19" x="14.7" y="12.7" class="st1" width="2.7" height="2.7"/>
<line id="XMLID_1189_" class="st2" x1="1.4" y1="42.4" x2="8.6" y2="42.4"/>
<line id="XMLID_1188_" class="st2" x1="51.1" y1="42.4" x2="56" y2="42.4"/>
<line id="XMLID_1187_" class="st2" x1="11.4" y1="42.4" x2="48.3" y2="42.4"/>
<line id="XMLID_1183_" class="st3" x1="9.6" y1="45.4" x2="15.5" y2="45.4"/>
<line id="XMLID_1182_" class="st3" x1="19.1" y1="45.4" x2="25" y2="45.4"/>
<line id="XMLID_1181_" class="st3" x1="28.4" y1="45.4" x2="40.6" y2="45.4"/>
<line id="XMLID_1180_" class="st3" x1="44.2" y1="45.4" x2="51.1" y2="45.4"/>
<path class="st4" d="M33.6,26.8c0.5-0.2,1.6-1.2,1.6-3.1l0.1-3.9h0.5c0.2,0,0.5-0.1,0.5-0.4v-2.1c0-0.2-0.1-0.5-0.4-0.5l-17.1-0.1
	c-0.2,0-0.5,0.1-0.5,0.4v2.1c0,0.2,0.1,0.5,0.4,0.5h0.5l-0.1,4c0,1.9,0.5,2.4,1.5,2.9l4.4,2.7v1.1c-1.2,0.6-4,2.2-4.4,2.6
	c-0.4,0.2-1.6,1.2-1.6,3v3.3h-0.5c-0.2,0-0.5,0.1-0.5,0.4v2c0,0.2,0.1,0.5,0.4,0.5l17.1,0.2c0.2,0,0.5-0.1,0.5-0.4v-2.1
	c0-0.2-0.1-0.5-0.4-0.5h-0.5v-3.3c0-1.9-0.5-2.4-1.5-2.9l-4.4-2.7v-1.1C30.5,28.6,33.3,27,33.6,26.8z M28.1,31.6l4.7,2.9
	c0.4,0.2,0.6,0.4,0.7,0.5c0.1,0.2,0.2,0.6,0.1,1.1v3.3l-12.8-0.1V36c0-1.1,0.6-1.4,0.9-1.6c0.4-0.2,2.9-1.6,4.7-2.7
	c0.2-0.1,0.4-0.4,0.5-0.6l0.1-2c0-0.2-0.2-0.6-0.4-0.6l-4.9-3.1l0,0c-0.4-0.2-0.6-0.4-0.7-0.5c-0.1-0.2-0.2-0.6-0.1-1.1l0.1-4
	l12.8,0.1l-0.1,3.9c0,1.1-0.6,1.4-0.9,1.6c-0.4,0.2-2.9,1.6-4.7,2.7c-0.2,0.1-0.4,0.4-0.5,0.6v2C27.6,31.2,27.9,31.3,28.1,31.6z"/>
</svg>
