<?xml version="1.0" encoding="utf-8"?>
<!-- Generator: Adobe Illustrator 22.0.1, SVG Export Plug-In . SVG Version: 6.00 Build 0)  -->
<svg version="1.1" id="Layer_1" xmlns="http://www.w3.org/2000/svg" xmlns:xlink="http://www.w3.org/1999/xlink" x="0px" y="0px"
	 viewBox="0 0 56 57" style="enable-background:new 0 0 56 57;" xml:space="preserve">
<style type="text/css">
	.st0{fill:#AA8381;stroke:#7B514D;stroke-width:1.5;stroke-linecap:round;stroke-linejoin:round;stroke-miterlimit:10;}
	.st1{fill:none;stroke:#7B514D;stroke-linecap:round;stroke-linejoin:round;stroke-miterlimit:10;}
</style>
<g>
	<circle class="st0" cx="27.4" cy="38.2" r="1.4"/>
	<path class="st0" d="M28.6,19.6V32c0,0.7-0.6,1.4-1.3,1.4c-0.7,0-1.3-0.5-1.3-1.3V19.6v-0.1c0-0.7,0.6-1.3,1.3-1.3
		S28.6,18.9,28.6,19.6z"/>
	<circle class="st1" cx="27.3" cy="29.3" r="21.1"/>
	<path class="st1" d="M11.2,25.5c0-3.7,1.7-7,4.4-9.3"/>
	<path class="st1" d="M17,15.3c0.3-0.2,0.6-0.4,0.9-0.5"/>
	<path class="st1" d="M19.8,13.9c1.1-0.3,2.2-0.5,3.4-0.5"/>
	<path class="st1" d="M33.9,44.4c-1.1,0.3-2.2,0.5-3.4,0.5"/>
	<path class="st1" d="M42.6,32.8c0,3.7-1.7,7-4.4,9.3"/>
	<path class="st1" d="M36.8,43.1c-0.3,0.2-0.6,0.4-0.9,0.5"/>
</g>
</svg>
